# AST/ASF file generated using VICON BodyLanguage
# -----------------------------------------------
:version 1.10
:name VICON
:units
  mass 1.0
  length 0.45
  angle deg
:documentation
   .ast/.asf automatically generated from VICON data using
   VICON BodyBuilder and BodyLanguage model FoxedUp or BRILLIANT.MOD
:root
   order TX TY TZ RX RY RZ
   axis XYZ
   position 0 0 0  
   orientation 0 0 0 
:bonedata
  begin
     id 1 
     name lhipjoint
     direction 0.710188 -0.616876 0.339259 
     length 2.5669 
     axis 0 0 0  XYZ
  end
  begin
     id 2 
     name lfemur
     direction 0.34202 -0.939693 0  
     length 7.12796  
     axis 0 0 20  XYZ
    dof rx ry rz
    limits (-160.0 20.0)
           (-70.0 70.0)
           (-60.0 70.0)
  end
  begin
     id 3 
     name ltibia
     direction 0.34202 -0.939693 0   
     length 7.58108   
     axis 0 0 20   XYZ
    dof rx
    limits (-10.0 170.0)
  end
  begin
     id 4 
     name lfoot
     direction 0.0669471 -0.183936 0.980656   
     length 2.17365   
     axis -90 7.62852e-016 20   XYZ
    dof rx rz
    limits (-45.0 90.0)
           (-70.0 20.0)
  end
  begin
     id 5 
     name ltoes
     direction 1.53508e-011 -4.21705e-011 1   
     length 1.09427   
     axis -90 7.62852e-016 20   XYZ
    dof rx
    limits (-90.0 20.0)
  end
  begin
     id 6 
     name rhipjoint
     direction -0.700191 -0.625589 0.34405   
     length 2.53115  
     axis 0 0 0  XYZ 
  end
  begin
     id 7 
     name rfemur
     direction -0.34202 -0.939693 0   
     length 7.33006   
     axis 0 0 -20   XYZ
    dof rx ry rz
    limits (-160.0 20.0)
           (-70.0 70.0)
           (-70.0 60.0)
  end
  begin
     id 8 
     name rtibia
     direction -0.34202 -0.939693 0   
     length 7.64926   
     axis 0 0 -20   XYZ
    dof rx
    limits (-10.0 170.0)
 end
 begin
     id 9 
     name rfoot
     direction -0.0688927 -0.189281 0.979503   
     length 2.20493  
     axis -90 -7.62852e-016 -20   XYZ
    dof rx rz
    limits (-45.0 90.0)
           (-20.0 70.0)
  end
  begin
     id 10 
     name rtoes
     direction -1.53567e-011 -4.21933e-011 1   
     length 1.10919   
     axis -90 -7.62852e-016 -20   XYZ
    dof rx
    limits (-90.0 20.0)
  end
  begin
     id 11 
     name lowerback
     direction -0.0167868 0.989873 -0.140959   
     length 2.14596   
     axis 0 0 0   XYZ
    dof rx ry rz
    limits (-20.0 45.0)
           (-30.0 30.0)
           (-30.0 30.0)
  end
  begin
     id 12 
     name upperback
     direction 0.0129109 0.998033 0.0613525   
     length 2.10457   
     axis 0 0 0   XYZ
    dof rx ry rz
    limits (-20.0 45.0)
           (-30.0 30.0)
           (-30.0 30.0)
  end
  begin
     id 13 
     name thorax
     direction 0.0177047 0.991119 0.131797   
     length 2.17652   
     axis 0 0 0   XYZ
    dof rx ry rz
    limits (-20.0 45.0)
           (-30.0 30.0)
           (-30.0 30.0)
  end
  begin
     id 14 
     name lowerneck
     direction -0.0336893 0.997548 0.0613464   
     length 1.8912   
     axis 0 0 0   XYZ
    dof rx ry rz
    limits (-20.0 45.0)
           (-30.0 30.0)
           (-30.0 30.0)
  end
  begin
     id 15 
     name upperneck
     direction 0.0435909 0.997179 -0.0611028   
     length 1.8829   
     axis 0 0 0   XYZ
    dof rx ry rz
    limits (-20.0 45.0)
           (-30.0 30.0)
           (-30.0 30.0)
  end
  begin
     id 16
     name head
     direction 0.0175076 0.999444 -0.0283782  
     length 1.93197  
     axis 0 0 0   XYZ
    dof rx ry rz
    limits (-20.0 45.0)
           (-30.0 30.0)
           (-30.0 30.0)
  end
  begin
     id 17 
     name lclavicle
     direction 0.919164 0.389875 0.0559876  
     length 3.60004  
     axis 0 0 0   XYZ
    dof ry rz
    limits (-20.0 10.0)
           (0.0 20.0)
  end
  begin
     id 18 
     name lhumerus
     direction 1 -4.48958e-011 6.89191e-027   
     length 5.43301   
     axis 180 -30 -90   XYZ
    dof rx ry rz
    limits (-60.0 90.0)
           (-90.0 90.0)
           (-90.0 90.0)
  end
  begin
     id 19
     name lradius
     direction 1 -4.4897e-011 3.24727e-027   
     length 3.15936   
     axis 180 -30 -90   XYZ
    dof rx
    limits (-10.0 170.0)
  end
  begin
     id 20
     name lwrist
     direction 1 -4.4897e-011 9.00228e-027   
     length 1.57968   
     axis -6.29373e-015 90 90   XYZ
    dof ry
    limits (-180.0 0.0)
 end
  begin
     id 21 
     name lhand
     direction 1 -4.48968e-011 1.80042e-026   
     length 0.712827   
     axis -1.14882e-014 90 90   XYZ
    dof rx rz
    limits (-90.0 90.0)
           (-45.0 45.0)
  end
  begin
     id 22 
     name lfingers
     direction 1 -4.49019e-011 3.60267e-026   
     length 0.574699   
     axis -2.29769e-014 90 90   XYZ
    dof rx
    limits (0.0 90.0)
  end
  begin
     id 23
     name lthumb
     direction 0.707107 -6.3498e-011 0.707107   
     length 0.825157   
     axis -90 45 5.37419e-014   XYZ
    dof rx rz
    limits (-45.0 45.0)
           (-45.0 45.0)
  end
  begin
     id 24 
     name rclavicle
     direction -0.890334 0.455305 -0.00132111   
     length 3.51494  
     axis 0 0 0   XYZ 
    dof ry rz
    limits (-10.0 20.0)
           (-20.0 0.0)
  end
  begin
     id 25 
     name rhumerus
     direction -1 -4.48967e-011 5.07175e-028  
     length 5.34194   
     axis 180 30 90   XYZ
    dof rx ry rz
    limits (-90.0 60.0)
           (-90.0 90.0)
           (-90.0 90.0)
  end
  begin
     id 26 
     name rradius
     direction -1 -4.48955e-011 3.30467e-027   
     length 3.19351   
     axis 180 30 90   XYZ
    dof rx
    limits (-10.0 170.0)
  end
  begin
     id 27 
     name rwrist
     direction -1 -4.48968e-011 9.00208e-027   
     length 1.59676   
     axis -6.29373e-015 -90 -90   XYZ
    dof ry
    limits (-180.0 0.0)
  end
  begin
     id 28
     name rhand
     direction -1 -4.49e-011 1.80099e-026   
     length 0.743862   
     axis -1.14882e-014 -90 -90   XYZ
    dof rx rz
    limits (-90.0 90.0)
           (-45.0 45.0)
  end
  begin
     id 29
     name rfingers
     direction -1 -4.49009e-011 3.6023e-026   
     length 0.599721   
     axis -2.29769e-014 -90 -90   XYZ
    dof rx
    limits (0.0 90.0)
  end
  begin
     id 30
     name rthumb
     direction -0.707107 -6.35025e-011 0.707107   
     length 0.861083   
     axis -90 -45 -5.37419e-014   XYZ
    dof rx rz
    limits (-45.0 45.0)
           (-45.0 45.0)
  end
:hierarchy
  begin
    root lhipjoint rhipjoint lowerback
    lhipjoint lfemur
    lfemur ltibia
    ltibia lfoot
    lfoot ltoes
    rhipjoint rfemur
    rfemur rtibia
    rtibia rfoot
    rfoot rtoes
    lowerback upperback
    upperback thorax
    thorax lowerneck lclavicle rclavicle
    lowerneck upperneck
    upperneck head
    lclavicle lhumerus
    lhumerus lradius
    lradius lwrist
    lwrist lhand lthumb
    lhand lfingers
    rclavicle rhumerus
    rhumerus rradius
    rradius rwrist
    rwrist rhand rthumb
    rhand rfingers
  end

#!OML:ASF H:\Martial Arts Walks\Project 1\Capture day 1\Session 1\male.ASF
:FULLY-SPECIFIED
:DEGREES
184
root -0.883577 11.4524 11.2553 9.3383 1.60791 -1.7819
lowerback 19.1023 1.58576 -2.21781
upperback -3.58169 1.74223 1.1256
thorax -15.0059 1.05749 1.99414
lowerneck -9.20962 -3.29465 -5.66591
upperneck 7.62896 -4.15921 5.04729
head 4.00514 -1.95662 2.20423
rclavicle -5.95112e-015 8.05078e-015
rhumerus 40.0211 -2.74994 -63.09
rradius 93.9687
rwrist 20.6751
rhand 0.886887 -13.9024
rfingers 7.12502
rthumb 26.4396 -42.0783
lclavicle -5.95112e-015 8.05078e-015
lhumerus 42.4216 -4.73858 86.6012
lradius 87.5406
lwrist -35.6145
lhand -10.9451 1.97197
lfingers 7.12502
lthumb 15.0733 31.4032
rfemur -73.9519 -5.30032 21.6809
rtibia 108.503
rfoot -33.2127 -17.7499
rtoes -13.2625
lfemur -74.646 11.7327 -17.9787
ltibia 107.559
lfoot -31.2671 16.442
ltoes -13.5723
185
root -0.884567 11.4525 11.2562 9.33816 1.62685 -1.78457
lowerback 19.0952 1.5827 -2.21911
upperback -3.5787 1.73801 1.12616
thorax -14.9979 1.05563 1.99697
lowerneck -9.21421 -3.29904 -5.67396
upperneck 7.64046 -4.16621 5.06767
head 4.01039 -1.95917 2.21122
rclavicle 3.93842e-015 -3.42904e-015
rhumerus 40.0049 -2.74567 -63.0803
rradius 93.9753
rwrist 20.6563
rhand 0.891781 -13.8937
rfingers 7.12502
rthumb 26.4443 -42.0689
lclavicle 3.93842e-015 -3.42904e-015
lhumerus 42.4114 -4.76024 86.5848
lradius 87.5429
lwrist -35.6177
lhand -10.939 1.98941
lfingers 7.12502
lthumb 15.0792 31.4202
rfemur -73.9412 -5.30588 21.6869
rtibia 108.504
rfoot -33.2205 -17.7638
rtoes -13.2846
lfemur -74.6458 11.7105 -17.9695
ltibia 107.56
lfoot -31.2607 16.4625
ltoes -13.6322
186
root -0.885582 11.4527 11.2573 9.34041 1.64629 -1.78952
lowerback 19.0851 1.5797 -2.2201
upperback -3.57723 1.73418 1.12788
thorax -14.9899 1.05401 2.00086
lowerneck -9.21873 -3.30085 -5.68847
upperneck 7.65366 -4.16967 5.09551
head 4.01626 -1.95976 2.22179
rclavicle -6.73383e-015 -3.8266e-015
rhumerus 39.9902 -2.74227 -63.0649
rradius 93.9834
rwrist 20.6419
rhand 0.904548 -13.8904
rfingers 7.12502
rthumb 26.4565 -42.0638
lclavicle -6.73383e-015 -3.8266e-015
lhumerus 42.4028 -4.78279 86.5679
lradius 87.5406
lwrist -35.6155
lhand -10.9342 2.01423
lfingers 7.12502
lthumb 15.0839 31.4447
rfemur -73.9326 -5.31133 21.6959
rtibia 108.505
rfoot -33.2301 -17.7742
rtoes -13.2955
lfemur -74.6487 11.6911 -17.9589
ltibia 107.562
lfoot -31.254 16.4814
ltoes -13.6936
187
root -0.886515 11.4527 11.2583 9.34485 1.66686 -1.79665
lowerback 19.0751 1.57607 -2.21918
upperback -3.57816 1.73014 1.13055
thorax -14.9847 1.05224 2.0048
lowerneck -9.2235 -3.30617 -5.68915
upperneck 7.66659 -4.17766 5.10299
head 4.0216 -1.96324 2.22356
rclavicle -2.70099e-014 -1.19768e-014
rhumerus 39.9762 -2.73864 -63.0443
rradius 93.9937
rwrist 20.6364
rhand 0.930254 -13.8907
rfingers 7.12502
rthumb 26.4811 -42.0604
lclavicle -2.70099e-014 -1.19768e-014
lhumerus 42.3943 -4.80411 86.5504
lradius 87.5357
lwrist -35.612
lhand -10.9471 2.01463
lfingers 7.12502
lthumb 15.0715 31.446
rfemur -73.9276 -5.31887 21.7079
rtibia 108.507
rfoot -33.2379 -17.7868
rtoes -13.301
lfemur -74.6556 11.6736 -17.9464
ltibia 107.565
lfoot -31.2511 16.4899
ltoes -13.7383
188
root -0.887401 11.4526 11.2593 9.35076 1.68658 -1.80452
lowerback 19.0661 1.5725 -2.218
upperback -3.58029 1.72625 1.13345
thorax -14.9817 1.05057 2.00879
lowerneck -9.23156 -3.3098 -5.69057
upperneck 7.67992 -4.1831 5.11035
head 4.02749 -1.96544 2.22553
rclavicle 8.44835e-015 2.5345e-015
rhumerus 39.9664 -2.73373 -63.0191
rradius 94.0045
rwrist 20.6391
rhand 0.953315 -13.8923
rfingers 7.12502
rthumb 26.5032 -42.0587
lclavicle 8.44835e-015 2.5345e-015
lhumerus 42.3896 -4.82355 86.5327
lradius 87.5277
lwrist -35.606
lhand -10.9585 2.01759
lfingers 7.12502
lthumb 15.0604 31.4498
rfemur -73.927 -5.32669 21.7211
rtibia 108.51
rfoot -33.2451 -17.7956
rtoes -13.294
lfemur -74.6658 11.66 -17.9338
ltibia 107.57
lfoot -31.2535 16.4877
ltoes -13.7425
189
root -0.888212 11.4523 11.2601 9.35627 1.70421 -1.81099
lowerback 19.0606 1.57004 -2.21793
upperback -3.58273 1.72342 1.13576
thorax -14.9812 1.04946 2.01234
lowerneck -9.23948 -3.31341 -5.69381
upperneck 7.68813 -4.18816 5.11807
head 4.03181 -1.9675 2.22795
rclavicle 1.81888e-014 1.04362e-015
rhumerus 39.9591 -2.72942 -62.9897
rradius 94.0156
rwrist 20.6476
rhand 0.975536 -13.8913
rfingers 7.12502
rthumb 26.5244 -42.0544
lclavicle 1.81888e-014 1.04362e-015
lhumerus 42.3906 -4.84176 86.5155
lradius 87.5169
lwrist -35.6037
lhand -10.9632 2.02357
lfingers 7.12502
lthumb 15.056 31.4561
rfemur -73.9281 -5.33484 21.7329
rtibia 108.513
rfoot -33.2508 -17.8039
rtoes -13.2836
lfemur -74.6751 11.6511 -17.9237
ltibia 107.575
lfoot -31.2576 16.4809
ltoes -13.7198
190
root -0.888939 11.4523 11.2606 9.36047 1.72 -1.81691
lowerback 19.062 1.56828 -2.21725
upperback -3.58668 1.72151 1.13765
thorax -14.9867 1.04874 2.01469
lowerneck -9.2424 -3.31562 -5.7005
upperneck 7.68744 -4.19107 5.12827
head 4.0326 -1.96856 2.23193
rclavicle 7.85199e-015 4.62174e-015
rhumerus 39.9529 -2.72364 -62.9584
rradius 94.026
rwrist 20.6646
rhand 0.99049 -13.8887
rfingers 7.12502
rthumb 26.5387 -42.0497
lclavicle 7.85199e-015 4.62174e-015
lhumerus 42.3925 -4.85796 86.4986
lradius 87.5071
lwrist -35.5999
lhand -10.9617 2.02628
lfingers 7.12502
lthumb 15.0573 31.4587
rfemur -73.9269 -5.34167 21.7432
rtibia 108.515
rfoot -33.2583 -17.8068
rtoes -13.2645
lfemur -74.6814 11.6466 -17.9146
ltibia 107.577
lfoot -31.2669 16.4628
ltoes -13.655
191
root -0.889589 11.4524 11.261 9.36298 1.73289 -1.81799
lowerback 19.0681 1.56831 -2.22052
upperback -3.59004 1.72063 1.13769
thorax -14.9945 1.04875 2.01678
lowerneck -9.24095 -3.31711 -5.7051
upperneck 7.67447 -4.19277 5.13483
head 4.02874 -1.96923 2.23465
rclavicle -1.87603e-015 1.11816e-014
rhumerus 39.9483 -2.72025 -62.927
rradius 94.0341
rwrist 20.6825
rhand 1.00597 -13.8864
rfingers 7.12502
rthumb 26.5536 -42.0451
lclavicle -1.87603e-015 1.11816e-014
lhumerus 42.3972 -4.87243 86.4827
lradius 87.4991
lwrist -35.5968
lhand -10.9512 2.02351
lfingers 7.12502
lthumb 15.0675 31.4552
rfemur -73.9261 -5.35018 21.7484
rtibia 108.517
rfoot -33.2643 -17.8094
rtoes -13.2532
lfemur -74.6836 11.6448 -17.911
ltibia 107.576
lfoot -31.2792 16.4404
ltoes -13.5721
192
root -0.89012 11.4525 11.2613 9.36393 1.74492 -1.81749
lowerback 19.079 1.56887 -2.2232
upperback -3.59294 1.72043 1.13711
thorax -15.0046 1.04897 2.01756
lowerneck -9.23609 -3.31639 -5.71052
upperneck 7.65103 -4.19108 5.14
head 4.02093 -1.96839 2.23738
rclavicle -8.22472e-015 -2.5345e-015
rhumerus 39.946 -2.71874 -62.8979
rradius 94.0403
rwrist 20.6962
rhand 1.02192 -13.8827
rfingers 7.12502
rthumb 26.5688 -42.0391
lclavicle -8.22472e-015 -2.5345e-015
lhumerus 42.4033 -4.88481 86.4684
lradius 87.4943
lwrist -35.5945
lhand -10.939 2.01325
lfingers 7.12502
lthumb 15.0793 31.444
rfemur -73.9241 -5.36179 21.7524
rtibia 108.517
rfoot -33.2672 -17.814
rtoes -13.2534
lfemur -74.683 11.644 -17.9099
ltibia 107.575
lfoot -31.2912 16.42
ltoes -13.5065
193
root -0.890567 11.4526 11.2614 9.36473 1.75664 -1.81506
lowerback 19.0935 1.56961 -2.22634
upperback -3.59716 1.72016 1.13567
thorax -15.0185 1.0492 2.01758
lowerneck -9.22199 -3.31403 -5.7122
upperneck 7.61585 -4.18718 5.13937
head 4.00769 -1.96681 2.23804
rclavicle 2.26118e-015 -1.63997e-014
rhumerus 39.9426 -2.71881 -62.8703
rradius 94.0456
rwrist 20.7004
rhand 1.03886 -13.8832
rfingers 7.12502
rthumb 26.585 -42.0371
lclavicle 2.26118e-015 -1.63997e-014
lhumerus 42.4057 -4.89511 86.4541
lradius 87.4959
lwrist -35.5909
lhand -10.9231 1.99684
lfingers 7.12502
lthumb 15.0946 31.4265
rfemur -73.9223 -5.3769 21.7547
rtibia 108.517
rfoot -33.2692 -17.8178
rtoes -13.2674
lfemur -74.6823 11.6427 -17.911
ltibia 107.573
lfoot -31.3036 16.3958
ltoes -13.4302
194
root -0.890909 11.4528 11.2617 9.36596 1.76701 -1.81359
lowerback 19.1066 1.57001 -2.2274
upperback -3.60011 1.71999 1.13428
thorax -15.03 1.04925 2.01647
lowerneck -9.20338 -3.309 -5.71226
upperneck 7.57114 -4.17951 5.13558
head 3.9905 -1.96357 2.23781
rclavicle 3.17559e-014 1.67476e-014
rhumerus 39.9448 -2.72153 -62.847
rradius 94.0492
rwrist 20.6943
rhand 1.06366 -13.8867
rfingers 7.12502
rthumb 26.6088 -42.0371
lclavicle 3.17559e-014 1.67476e-014
lhumerus 42.4109 -4.90161 86.4395
lradius 87.5011
lwrist -35.5866
lhand -10.9152 1.97554
lfingers 7.12502
lthumb 15.1021 31.4046
rfemur -73.9192 -5.39285 21.7579
rtibia 108.515
rfoot -33.2725 -17.8206
rtoes -13.2786
lfemur -74.6813 11.643 -17.9129
ltibia 107.57
lfoot -31.3122 16.3818
ltoes -13.3806
195
root -0.891115 11.4532 11.2619 9.36813 1.77699 -1.8153
lowerback 19.1182 1.56885 -2.22505
upperback -3.60065 1.71877 1.13425
thorax -15.0375 1.04855 2.01534
lowerneck -9.1912 -3.30256 -5.70976
upperneck 7.52571 -4.16949 5.12708
head 3.97386 -1.95923 2.23579
rclavicle -1.51325e-014 -1.46107e-014
rhumerus 39.9558 -2.72543 -62.8273
rradius 94.0514
rwrist 20.6789
rhand 1.08502 -13.8919
rfingers 7.12502
rthumb 26.6292 -42.0392
lclavicle -1.51325e-014 -1.46107e-014
lhumerus 42.4191 -4.90177 86.4241
lradius 87.5116
lwrist -35.5806
lhand -10.9118 1.96102
lfingers 7.12502
lthumb 15.1054 31.3898
rfemur -73.9148 -5.40877 21.7641
rtibia 108.512
rfoot -33.2744 -17.8272
rtoes -13.3091
lfemur -74.6832 11.6434 -17.9123
ltibia 107.568
lfoot -31.318 16.369
ltoes -13.3627
196
root -0.891217 11.4535 11.2621 9.37189 1.78599 -1.82194
lowerback 19.1265 1.56634 -2.21769
upperback -3.59983 1.71724 1.13557
thorax -15.0412 1.04729 2.01302
lowerneck -9.18279 -3.2936 -5.7061
upperneck 7.48236 -4.15607 5.1183
head 3.95827 -1.95315 2.23367
rclavicle 3.49861e-014 4.91992e-015
rhumerus 39.9736 -2.72973 -62.8114
rradius 94.0535
rwrist 20.6605
rhand 1.10157 -13.9009
rfingers 7.12502
rthumb 26.6451 -42.0458
lclavicle 3.49861e-014 4.91992e-015
lhumerus 42.4293 -4.89728 86.4083
lradius 87.5246
lwrist -35.5749
lhand -10.921 1.9593
lfingers 7.12502
lthumb 15.0966 31.3888
rfemur -73.9113 -5.42228 21.7754
rtibia 108.507
rfoot -33.2739 -17.8357
rtoes -13.3561
lfemur -74.69 11.6467 -17.9077
ltibia 107.567
lfoot -31.3225 16.3565
ltoes -13.3561
